<?xml version="1.0" standalone="no"?>
<!DOCTYPE svg PUBLIC "-//W3C//DTD SVG 20010904//EN"
 "http://www.w3.org/TR/2001/REC-SVG-20010904/DTD/svg10.dtd">
<svg version="1.0" xmlns="http://www.w3.org/2000/svg"
 width="1862.000000pt" height="2400.000000pt" viewBox="0 0 1862.000000 2400.000000"
 preserveAspectRatio="xMidYMid meet">

<g transform="translate(0.000000,2400.000000) scale(0.100000,-0.100000)"
fill="#000000" stroke="none">
<path d="M8965 23989 c-1465 -97 -2825 -837 -3715 -2024 -916 -1223 -1228
-2782 -854 -4278 167 -670 482 -1316 908 -1862 250 -322 581 -653 901 -902
544 -423 1195 -740 1860 -906 1139 -284 2309 -176 3375 313 889 407 1689 1121
2197 1960 614 1013 853 2169 692 3345 -211 1544 -1142 2917 -2507 3699 -859
492 -1856 720 -2857 655z"/>
<path d="M9150 13403 c-895 -16 -1823 -206 -2690 -553 -3320 -1329 -5787
-4909 -6334 -9192 -75 -588 -122 -1311 -114 -1754 l3 -190 39 -79 c94 -190
367 -391 759 -558 851 -363 2191 -651 3922 -841 1470 -162 2835 -230 4575
-230 1326 0 2267 33 3390 119 2715 210 4733 643 5560 1193 128 86 258 220 306
317 l39 79 3 190 c6 332 -22 893 -69 1356 -225 2250 -976 4364 -2163 6090
-1587 2309 -3826 3746 -6245 4010 -293 32 -669 48 -981 43z"/>
</g>
</svg>
